<?xml version="1.0" encoding="utf-8" ?>
<svg xmlns="http://www.w3.org/2000/svg" xmlns:xlink="http://www.w3.org/1999/xlink" width="512" height="512">
	<path fill="#FDFDFD" transform="scale(0.666667 0.666667)" d="M0 0.1875C1.70241 -0.185587 3.61693 -0.00979729 5.35479 -0.0090068C8.44963 -0.00759905 11.5445 -0.00845752 14.6393 -0.00881649C26.6055 -0.0102045 38.5716 -0.00977825 50.5378 -0.00976663C98.2915 -0.00972023 146.045 -0.00952629 193.799 -0.0102393C385.199 -0.0130972 576.6 -0.00755292 768 0L768 767.812C766.298 768.186 764.383 768.01 762.645 768.009C759.55 768.008 756.456 768.008 753.361 768.009C741.395 768.01 729.428 768.01 717.462 768.01C669.708 768.01 621.955 768.01 574.201 768.01C382.801 768.013 191.4 768.008 -0 768L0 0.1875Z"/>
	<path fill="#2B1F31" transform="scale(0.666667 0.666667)" d="M475.38 608.401C477.276 608.237 479.348 608.342 481.205 608.808C486.191 610.057 490.988 614.291 493.496 618.666C495.009 621.307 496.195 625.067 495.243 628.094C494.73 629.727 493.601 630.543 492.158 631.32C490.844 631.475 489.196 631.894 487.926 631.547L487.011 626.335C484.922 618.267 478.561 613.466 471.796 609.341L471.938 608.73L475.38 608.401Z"/>
	<path fill="#2B1F31" transform="scale(0.666667 0.666667)" d="M341.108 606.005C340.836 605.262 340.906 604.785 341.014 604.01C341.98 605.168 342.953 606.596 344.192 607.459C349.547 607.771 355.083 607.154 360.287 608.849C362.221 609.478 364.213 610.807 365.982 611.812C369.208 613.648 371.97 615.592 374.478 618.363C377.838 622.075 379.34 626.918 379.613 631.849L361.647 631.9C360.69 629.025 359.832 626.132 358.12 623.6C355.162 619.221 350.362 615.787 346.663 611.997C344.82 610.11 343.101 607.68 341.108 606.005Z"/>
	<defs>
		<linearGradient id="gradient_0" gradientUnits="userSpaceOnUse" x1="125.062" y1="634.31201" x2="182.067" y2="636.88898">
			<stop offset="0" stop-color="#3D1F4D"/>
			<stop offset="1" stop-color="#632F86"/>
		</linearGradient>
	</defs>
	<path fill="url(#gradient_0)" transform="scale(0.666667 0.666667)" d="M178.568 565.657C181.003 563.537 183.677 562.049 186.774 561.161C184.259 563.952 180.865 567.345 177.754 569.433C175.97 570.631 172.74 575.65 172.309 577.688L171.559 578.438C171.792 579.124 171.656 578.826 171.938 579.347L171.635 579.632C170.339 580.869 170.016 582.15 168.934 583.5L169.219 583.502L169.637 583.06C170.223 582.507 170.501 582.432 171.262 582.288C163.557 590.684 157.119 600.012 151.196 609.72C148.992 613.332 146.44 617.266 144.936 621.235C142.906 623.941 141.739 626.994 140.201 629.968C139.314 631.684 138.26 633.225 137.582 635.056C137.081 636.411 136.054 637.306 135.452 638.588L135.184 639.093L132.213 641.444C133.991 641.482 135.947 641.356 137.691 641.682L137.256 641.742C134.298 642.016 127.673 642.934 125.503 640.807C124.407 639.732 124.05 638.073 124.062 636.594C124.083 634.126 125.146 631.821 126.399 629.744C131.56 621.183 138.811 613.425 144.713 605.321C148.966 599.481 153.118 593.556 157.187 587.587C160.22 583.138 163.034 578.029 166.894 574.275C169.4 572.611 171.514 570.541 173.928 568.782C175.469 567.66 177.183 566.978 178.568 565.657Z"/>
	<path fill="#2B1F31" transform="scale(0.666667 0.666667)" d="M415.839 605.841C419.064 606.373 422.295 606.529 425.527 606.976C429.896 607.581 433.982 608.603 438.439 608.628C445.938 608.67 453.885 606.964 461.298 607.779C468.588 608.582 475.595 613.307 479.827 619.211C482.492 622.928 483.414 627.269 483.663 631.75L468.315 631.817C466.187 623.109 461.233 616.319 453.588 611.561C450.9 609.888 447.952 609.064 444.832 608.654L447.755 610.179C454.087 613.023 460.453 618.508 462.863 625.167C463.587 627.168 463.992 629.367 464.183 631.479L444.886 631.568C443.952 628.657 443.05 626.092 441.211 623.597C437.538 618.613 430.964 616.087 425.777 612.967C422.62 611.067 419.697 608.625 416.454 606.905L415.839 605.841Z"/>
	<path fill="#9FB9C3" transform="scale(0.666667 0.666667)" d="M425.528 224.47C428.498 226.757 431.506 228.668 434.198 231.325C439.124 236.186 443.48 241.648 447.697 247.125C451.58 252.17 455.406 257.177 458.573 262.717C459.329 264.039 460.599 265.798 460.93 267.278L460.995 268.141C457.886 267.443 454.824 266.03 451.836 264.921C446.198 262.828 440.539 260.767 434.863 258.783C418.329 253.004 401.212 248.289 385.114 241.321C387.56 239.759 390.439 238.595 393.065 237.342C399.585 234.231 406.316 231.44 412.952 228.577L425.528 224.47Z"/>
	<defs>
		<linearGradient id="gradient_1" gradientUnits="userSpaceOnUse" x1="411.18799" y1="189.188" x2="404.423" y2="140.306">
			<stop offset="0" stop-color="#7C98A4"/>
			<stop offset="1" stop-color="#90B5BE"/>
		</linearGradient>
	</defs>
	<path fill="url(#gradient_1)" transform="scale(0.666667 0.666667)" d="M410.96 187.135L420.947 169.848C428.802 157.349 439.221 145.924 452.189 138.644C459.215 134.701 467.399 131.905 475.249 130.129C489.189 126.973 502.979 127.791 516.294 133.065C523.698 135.996 530.782 140.201 537.509 144.455C535.245 145.17 532.075 144.8 529.676 144.797C527.403 144.992 525.032 144.979 522.844 145.613C521.654 145.959 520.394 145.922 519.195 146.223L498.852 147.789C495.226 147.623 491.356 148.042 487.787 147.433C479.68 148.749 471.651 150.374 463.87 153.055C451.221 157.413 439.068 164.83 429.131 173.736C425.774 176.745 422.337 179.658 418.984 182.673C416.881 184.565 414.671 187.008 412.219 188.29L411.186 189.189L411.373 188.531C411.537 187.74 411.355 187.747 410.96 187.135Z"/>
	<path fill="#687D8B" transform="scale(0.666667 0.666667)" d="M487.787 147.433C491.733 144.746 496.448 144.308 501 143.441C502.922 143.075 504.854 143.168 506.81 143.096C507.552 143.068 508.205 142.736 508.917 142.922C510.726 143.396 512.954 143.069 514.854 143.278L515.248 143.324L519.75 143.907C520.878 144.169 521.83 144.097 522.938 144.276C525.171 144.635 527.405 144.63 529.676 144.797C527.403 144.992 525.032 144.979 522.844 145.613C521.654 145.959 520.394 145.922 519.195 146.223L498.852 147.789C495.226 147.623 491.356 148.042 487.787 147.433Z"/>
	<path fill="#CBBFD4" transform="scale(0.666667 0.666667)" d="M436.511 334.613L435.91 324.182L436.189 324.036C440.248 321.884 443.727 318.979 447.283 316.108C451.27 312.889 455.124 309.76 458.812 306.191L458.812 306.75C457.454 308.097 455.748 309.478 454.688 311.059L454.125 311.062L453 312.188C453.723 312.918 456.263 312.813 457.312 312.75C457.843 312.718 457.979 312.672 458.438 312.566L459.047 312.857C460.07 313.306 461.119 313.087 462.188 312.941L462.562 313.316C463.497 313.316 463.826 313.159 464.625 313.691C465.558 313.691 466.075 313.533 466.875 314.066C467.672 314.066 467.666 313.968 468.375 314.441C469.347 314.441 469.396 314.385 470.25 314.816L470.998 315.002L471.566 315.562L472.125 315.191L472.616 315.448C473.511 315.895 474.338 316.131 475.312 316.316C476.334 316.511 476.576 317.222 477.375 316.691L477.879 317.043C479.176 317.908 480.801 318.264 482.273 318.756C484.018 319.339 481.481 318.467 483.375 319.32C484.268 319.723 485.241 319.897 486.187 320.364C486.887 320.709 486.582 320.578 487.311 320.769C488.01 320.951 488.371 321.285 489 321.572L489.748 321.759C490.72 322.129 491.581 322.721 492.576 323.08C493.156 323.289 493.37 323.549 493.875 323.823L494.809 324.188L495.375 324.573L495.714 324.665C496.498 324.884 497.142 325.3 497.824 325.73L502.89 328.552L506.25 330.618L509.016 332.43C510 333.083 510.987 333.564 511.875 334.338L514.125 335.823C515.115 336.481 515.952 337.082 516.846 337.875L526.498 345.639C527.269 346.182 526.577 345.665 527.25 346.321L528.125 347.062C526.057 349.505 523.318 351.574 520.993 353.791C514.614 359.873 508.13 365.839 501.676 371.842C499.745 370.713 497.552 367.857 495.865 366.258C493.478 363.997 490.934 361.933 488.265 360.015C475.258 350.67 460.507 345.092 445.875 338.959C442.709 337.632 439.776 335.602 436.511 334.613Z"/>
	<defs>
		<linearGradient id="gradient_2" gradientUnits="userSpaceOnUse" x1="278.81201" y1="504.93799" x2="189.24899" y2="602.35999">
			<stop offset="0" stop-color="#260B3E"/>
			<stop offset="1" stop-color="#9751C4"/>
		</linearGradient>
	</defs>
	<path fill="url(#gradient_2)" transform="scale(0.666667 0.666667)" d="M225.341 503.577L294.261 500.2L297.375 500.491C294.493 501.061 291.297 501.351 288.534 502.306C284.248 503.788 280.541 506.383 276.396 508.012L275.819 508.384C270.35 511.864 264.357 514.528 258.853 517.984C250.283 523.364 242.083 529.387 233.782 535.167C225.48 540.948 216.779 546.628 208.94 553.015C198.932 559.907 189.352 567.371 179.892 574.991C178.505 576.108 172.431 581.995 171.262 582.288C170.501 582.432 170.223 582.507 169.637 583.06L169.219 583.502L168.934 583.5C170.016 582.15 170.339 580.869 171.635 579.632L171.938 579.347C171.656 578.826 171.792 579.124 171.559 578.438L172.309 577.688C172.74 575.65 175.97 570.631 177.754 569.433C180.865 567.345 184.259 563.952 186.774 561.161C183.677 562.049 181.003 563.537 178.568 565.657C177.183 566.978 175.469 567.66 173.928 568.782C171.514 570.541 169.4 572.611 166.894 574.275C163.146 572.618 159.011 572.624 155.246 570.565L151.826 568.845C157.783 560.913 167.073 554.254 174.847 548.143C184.246 540.755 193.858 533.53 202.897 525.708C206.278 521.207 208.774 515.315 211.005 510.162L196.128 508.677C193.612 508.411 190.12 508.166 188.438 506.09L188.673 505.312C192.816 504.24 198.078 504.631 202.411 504.47C210.056 504.186 217.694 503.801 225.341 503.577Z"/>
	<path fill="#774694" transform="scale(0.666667 0.666667)" d="M183.126 559.677L184.055 559.774L183.562 560.434L183 560.438L182.062 561.559L181.5 561.562L180.188 563.059L179.625 563.062L178.688 564.184L178.125 564.188C177.717 564.675 177.47 565.222 176.848 565.381C175.652 565.686 174.11 567.062 173.051 567.768C172.553 568.1 172.086 568.321 171.561 568.594C170.316 569.239 168.715 569.655 167.625 570.467L167.109 570.461C166.314 570.461 166.619 570.452 165.75 570.562L166.031 571.219L165.938 571.875L165.375 572.25L165.092 572.625L165.75 572.816L166.875 573.375L167.18 573.143L168.176 572.453C169.22 571.757 169.954 571.005 170.838 570.136C171.61 569.376 170.691 570.251 171.752 569.627C172.636 569.107 172.98 568.256 174.002 567.752L174.341 567.495C174.842 567.119 175.322 566.91 175.877 566.627L176.411 566.337C177.118 565.984 177.803 565.839 178.568 565.657C177.183 566.978 175.469 567.66 173.928 568.782C171.514 570.541 169.4 572.611 166.894 574.275C163.146 572.618 159.011 572.624 155.246 570.565L155.31 570.196C155.801 570.164 156.07 570.128 156.522 570.353C157.163 570.672 157.802 570.684 158.438 570.945C159.265 571.285 159.551 571.353 160.5 571.332C162.103 569.92 164.655 570.118 166.682 569.784C168.021 569.563 169.409 569.003 170.625 568.418C175.039 566.296 179.219 562.614 183.126 559.677Z"/>
	<path fill="#2A192E" transform="scale(0.666667 0.666667)" d="M225.341 503.577L294.261 500.2L297.375 500.491C294.493 501.061 291.297 501.351 288.534 502.306C284.248 503.788 280.541 506.383 276.396 508.012C276.852 507.23 277.019 506.706 277.899 506.374L278.25 506.25C278.603 505.782 278.718 505.392 278.906 504.844L278.25 505.125L277.312 504.559L276.562 505.125L275.906 504.844L275.531 505.123L275.156 504.844L274.688 505.309L273.75 505.217C273.306 505.252 272.974 505.497 272.672 505.797L272.438 506.059L271.875 505.5C271.333 505.931 271.606 505.873 271.127 505.873C271.124 505.092 271.257 505.445 270.656 504.844C269.918 505.576 269.132 505.309 268.125 505.309C266.859 504.468 265.706 505.366 264.375 504.375C263.833 504.806 264.106 504.748 263.627 504.748C263.406 504.24 263.153 503.834 263.252 503.252L263.441 502.688L262.875 502.967L262.406 502.686L261.938 503.059C261.298 502.419 259.162 502.685 258.188 502.684C257.594 503.278 256.938 503.059 256.125 503.059L255.566 502.688C254.792 503.446 251.347 503.059 250.125 503.059C249.326 503.591 248.997 503.434 248.062 503.434L247.688 503.809C246.777 503.822 245.793 503.905 244.897 503.728L244.502 503.623L244.067 503.517L243.75 503.434L243.188 503.809L242.906 503.436L242.156 503.623L241.5 503.809L241.125 503.438L240.562 503.809L240.281 503.436C239.309 504.209 236.272 503.809 234.938 503.809L234.562 504.184L233.812 504.184C233.188 504.809 232.241 504.559 231.375 504.559L231 504.188L230.062 504.184L229.406 504.373L229.031 504.186L228.562 504.559C227.816 504.571 227.147 504.588 226.406 504.467L225.938 504.375L225.469 504.844C225.451 505.508 225.409 505.83 225.105 506.438L224.812 507C224.431 507.956 224.404 508.811 223.536 509.531C223.625 508.875 223.547 509.01 223.771 508.536C224.591 506.804 225.02 505.478 225.341 503.577Z"/>
	<path fill="#9F69BD" transform="scale(0.666667 0.666667)" d="M202.897 525.708L203.497 525.643C204.226 525.55 204.821 525.314 205.501 525.052C207.334 524.347 212.638 522.921 214.429 523.547C211.319 528.014 209.557 533.178 206.514 537.671C200.388 546.718 191.093 552.488 183.126 559.677C179.219 562.614 175.039 566.296 170.625 568.418C169.409 569.003 168.021 569.563 166.682 569.784C164.655 570.118 162.103 569.92 160.5 571.332C159.551 571.353 159.265 571.285 158.438 570.945C157.802 570.684 157.163 570.672 156.522 570.353C156.07 570.128 155.801 570.164 155.31 570.196L155.246 570.565L151.826 568.845C157.783 560.913 167.073 554.254 174.847 548.143C184.246 540.755 193.858 533.53 202.897 525.708Z"/>
	<path fill="#905BB0" transform="scale(0.666667 0.666667)" d="M270.834 337.186C275.14 339.668 280.533 340.722 285.371 341.716C295.017 343.699 304.006 344.545 313.836 344.773C318.117 344.873 322.393 345.064 326.665 344.677L342.612 343.476L307.54 390.061C307.252 390.606 306.981 391.051 306.618 391.557C305.262 390.936 302.104 391.414 300.504 391.388C296.135 391.318 291.793 391.165 287.438 390.822C270.982 389.528 253.926 387.41 237.918 383.339L270.429 337.753L270.834 337.186Z"/>
	<defs>
		<linearGradient id="gradient_3" gradientUnits="userSpaceOnUse" x1="341.81201" y1="498.56201" x2="306.13699" y2="462.01599">
			<stop offset="0" stop-color="#471C66"/>
			<stop offset="1" stop-color="#9A63BB"/>
		</linearGradient>
	</defs>
	<path fill="url(#gradient_3)" transform="scale(0.666667 0.666667)" d="M294.261 500.2C299.76 499.373 305.53 499.461 311.089 499.141C318.721 498.701 326.336 497.986 333.95 497.323C338.027 496.968 342.245 497.029 346.23 496.014C339.292 502.127 330.988 507.15 323.299 512.261C309.862 521.194 296.289 529.886 282.754 538.666C272.817 545.111 263.061 551.843 253.169 558.359C242.627 565.303 231.938 572.04 221.516 579.162C210.613 586.614 199.883 594.383 189.045 601.938C182.512 606.492 175.97 611.071 169.312 615.439C164.872 618.353 159.28 621.286 155.452 624.932L155.758 625.255C153.852 626.97 151.503 628.271 149.341 629.647C144.743 632.574 139.84 635.378 135.452 638.588C136.054 637.306 137.081 636.411 137.582 635.056C138.26 633.225 139.314 631.684 140.201 629.968C141.739 626.994 142.906 623.941 144.936 621.235C146.44 617.266 148.992 613.332 151.196 609.72C157.119 600.012 163.557 590.684 171.262 582.288C172.431 581.995 178.505 576.108 179.892 574.991C189.352 567.371 198.932 559.907 208.94 553.015C216.779 546.628 225.48 540.948 233.782 535.167C242.083 529.387 250.283 523.364 258.853 517.984C264.357 514.528 270.35 511.864 275.819 508.384L276.396 508.012C280.541 506.383 284.248 503.788 288.534 502.306C291.297 501.351 294.493 501.061 297.375 500.491L294.261 500.2Z"/>
	<path fill="#9F69BD" transform="scale(0.666667 0.666667)" d="M208.94 553.015L209.426 552.86C210.572 552.485 211.342 552.247 212.25 551.434C212.846 550.9 213.372 550.556 214.031 550.123L215.766 548.762C216.498 548.176 215.854 548.646 216.656 548.248C217.168 547.995 217.623 547.576 218.056 547.216C218.566 546.791 219.009 546.529 219.562 546.184L220.125 545.809L220.781 545.719L221.062 546.184C221.696 546.116 221.745 545.974 222.281 546.373L222.75 546L223.436 546.097C224.084 546.185 224.629 546.181 225.281 546.094L225.656 546.373L226.125 546C226.89 546.253 226.688 546.195 227.531 546.094C228.621 545.963 230.749 546.601 231.656 546.002L232.312 546.191C234.647 546.556 237.492 545.629 239.625 546.566C240.62 547.003 241.59 546.805 242.596 546.641C243.528 546.488 244.322 546.81 245.25 546.658L245.59 546.798C246.3 547.062 246.795 546.898 247.502 546.752L248.438 546.566L249 547.125L251.818 545.256L253.406 544.031L256.963 541.435C257.612 541.022 257.348 541.258 257.812 540.566L258.375 540.562L258.803 540.111C259.562 539.352 259.018 539.828 259.969 539.344L260.625 538.875L261.75 538.125L262.123 538.364L145.265 621.444L144.936 621.235C146.44 617.266 148.992 613.332 151.196 609.72C157.119 600.012 163.557 590.684 171.262 582.288C172.431 581.995 178.505 576.108 179.892 574.991C189.352 567.371 198.932 559.907 208.94 553.015Z"/>
	<path fill="#2A192E" transform="scale(0.666667 0.666667)" d="M251.552 561.817C255.112 562.784 259.881 562.015 263.602 561.963C269.262 561.885 274.949 561.933 280.605 562.112C301.181 562.763 321.671 564.871 342.239 565.591C357.942 566.141 373.435 565.654 389.107 564.705C395.195 564.336 401.336 563.721 407.375 562.878C409.451 562.588 411.511 562.214 413.574 561.847C414.351 561.709 415.685 561.284 416.438 561.335C417.261 561.391 418.057 562.225 418.606 562.766C412.398 565.925 405.471 568.94 403.201 576.193C401.17 582.68 403.71 589.211 406.845 594.874C408.746 598.308 412.285 604.041 415.839 605.841L416.454 606.905C416.78 608.082 418.234 609.115 419.182 609.913C422.134 612.4 425.362 614.373 428.704 616.288C433.842 619.231 438.812 621.556 440.811 627.634C441.162 628.701 441.673 630.262 441.117 631.312C439.201 631.749 437.124 631.561 435.168 631.552C431.482 631.534 427.797 631.523 424.111 631.521C410.852 631.515 397.57 631.366 384.323 631.984C383.596 630.813 383.589 628.922 383.252 627.562C382.879 626.059 382.22 624.622 381.481 623.263C377.299 615.57 369.335 611.005 361.218 608.599C366.722 607.719 375.083 606.494 379.366 611.007C380.301 611.992 380.991 613.742 382.312 614.158C384.653 613.197 386.307 611.961 387.562 609.709C388.805 607.48 388.763 605.332 387.943 602.963C386.852 599.813 385.046 596.968 382.994 594.363C379.105 589.427 374.245 585.082 369.771 580.678C365.592 576.564 360.345 570.293 354.995 567.905C352.02 566.577 346.814 566.393 343.766 567.68C340.353 569.121 337.707 573.165 336.442 576.518C332.927 585.832 337.162 595.664 341.014 604.01C340.906 604.785 340.836 605.262 341.108 606.005L341.217 606.32C343.479 612.491 350.007 616.924 353.938 621.973C356.225 624.91 357.42 628.202 358.051 631.836C346.18 631.906 334.308 631.899 322.437 631.91C319.976 631.912 317.515 631.923 315.054 631.908C314.461 631.905 313.082 632.059 312.562 631.887C312.299 631.8 312.162 631.504 311.961 631.312C310.902 624.218 314.032 619.951 316.248 613.678C313.706 616.338 311.233 619.871 310.062 623.365C309.436 625.231 309.121 627.272 309.017 629.232C309.002 629.524 309.006 631.897 308.945 631.975C308.944 631.976 308.123 632 308.02 632.003C306.698 632.043 305.377 632.08 304.056 632.109L299.812 631.982C298.788 630.975 298.51 629.465 298.561 628.024C298.756 622.498 301.924 616.905 306.123 613.402C309.63 610.476 314.225 608.792 314.844 603.715C315.45 598.74 311.583 592.255 308.462 588.566C304.24 583.576 298.93 579.501 294.009 575.222C290.711 572.354 287.576 569.227 284.137 566.534C281.04 568.047 278.236 570.181 275.395 572.123C271.778 574.596 268.095 576.959 264.404 579.32C241.29 594.104 218.623 609.692 196.147 625.421C191.153 628.916 186.197 632.469 181.277 636.068C178.978 637.75 176.299 640.305 173.675 641.397C171.871 642.148 168.449 641.676 166.434 641.673C160.116 641.662 153.797 641.624 147.479 641.644C144.486 641.654 140.543 642.171 137.691 641.682C135.947 641.356 133.991 641.482 132.213 641.444L135.184 639.093L135.452 638.588C139.84 635.378 144.743 632.574 149.341 629.647C151.503 628.271 153.852 626.97 155.758 625.255L251.552 561.817Z"/>
	<path fill="#BDB5C6" transform="scale(0.666667 0.666667)" d="M436.511 334.613C439.776 335.602 442.709 337.632 445.875 338.959C460.507 345.092 475.258 350.67 488.265 360.015C490.934 361.933 493.478 363.997 495.865 366.258C497.552 367.857 499.745 370.713 501.676 371.842C495.181 377.748 488.919 383.898 482.453 389.836C457.946 412.342 432.785 434.938 406.311 455.081C390.757 466.915 374.258 477.798 357.935 488.538C354.489 490.806 350.836 492.77 347.438 495.079L347.159 494.007C319.551 496.32 291.747 497.04 264.08 498.491C256.024 498.914 247.969 499.217 239.914 499.634C234.366 499.922 227.861 500.939 222.375 500.062C224.09 499.621 227.742 499.491 229.5 499.778C230.837 499.997 232.27 499.887 233.625 499.875C235.003 498.956 236.836 499.959 238.312 499.5C240.543 498.806 243.267 498.966 245.625 499.125C247.7 497.742 251.671 499.616 254.062 498.191C255.256 498.379 256.42 498.434 257.625 498.283C258.435 498.181 257.927 498.159 258.702 498.236L260.438 498.375C261.116 498.3 261.514 497.928 261.938 497.441L261.188 497.625L260.816 496.5L260.25 496.309L259.594 496.123L259.688 495.566C259.341 494.864 259.337 494.464 259.316 493.688L259.312 493.125L258.941 492.562C258.973 492 258.979 491.69 258.766 491.156L258.566 490.688C258.329 489.907 258.265 489.366 257.816 488.625L257.441 488.062C257.497 487.429 257.489 487.161 257.194 486.573L256.877 485.998L256.316 484.875C255.421 483.36 255.941 478.938 255.941 477C255.339 476.096 255.566 475.071 255.566 474C254.802 472.853 255.191 469.148 255.191 467.625C255.659 466.921 255.563 466.917 255.566 466.125C255.971 465.669 256.457 465.247 256.61 464.641C256.726 464.18 256.847 463.921 257.077 463.5L257.439 462.844L256.594 462.844C255.814 463.052 254.815 463.241 254.062 463.5C253.347 463.746 252.789 463.77 252.094 463.969C251.718 464.076 251.369 464.273 250.986 464.35L248.625 464.812L247.688 465C246.844 465.29 246.191 465.145 245.438 465.375L244.781 465.656L243.75 465.75C242.81 466.125 242.424 465.978 241.5 466.217L241.031 466.406L239.812 466.5C238.28 466.901 239.971 466.726 238.564 466.834C238.009 466.877 237.541 466.933 237 467.062C236.186 467.257 235.768 467.236 234.941 467.062C246.11 465.167 257.574 462.648 268.312 459.007C285.163 453.293 301.093 445.903 317.115 438.233C330.492 431.829 344.093 425.252 356.916 417.791C373.706 408.021 389.481 396.945 404.63 384.806C408.065 382.054 411.136 378.756 414.239 375.637C426.031 363.789 434.7 351.724 436.511 334.613Z"/>
	<defs>
		<linearGradient id="gradient_4" gradientUnits="userSpaceOnUse" x1="597.56201" y1="167.062" x2="456.45599" y2="127.891">
			<stop offset="0" stop-color="#271329"/>
			<stop offset="1" stop-color="#3A3C42"/>
		</linearGradient>
	</defs>
	<path fill="url(#gradient_4)" transform="scale(0.666667 0.666667)" d="M529.676 144.797C532.075 144.8 535.245 145.17 537.509 144.455L537.924 144.727C542.976 148.13 545.544 156.218 551.625 157.148L552.184 157.241C554.403 157.578 557.349 156.516 559.676 156.263C563.133 155.888 566.609 155.751 570.081 155.601C574.611 155.601 578.858 156.108 583.119 157.721C584.77 158.116 585.714 158.764 587.006 159.837C591.742 161.883 595.829 164.014 599.594 167.589C583.049 171.015 564.771 178.847 555.171 193.371C541.23 214.464 542.842 244.672 547.789 268.379L558.629 306.404C540.982 299.083 522.887 292.732 505.038 285.909C501.137 284.418 497.231 282.939 493.334 281.438C491.621 280.779 489.216 280.088 487.766 278.944L460.995 268.141L460.93 267.278C460.599 265.798 459.329 264.039 458.573 262.717C455.406 257.177 451.58 252.17 447.697 247.125C443.48 241.648 439.124 236.186 434.198 231.325C431.506 228.668 428.498 226.757 425.528 224.47L412.952 228.577C406.316 231.44 399.585 234.231 393.065 237.342C390.439 238.595 387.56 239.759 385.114 241.321L378.736 239.577L410.96 187.135C411.355 187.747 411.537 187.74 411.373 188.531L411.186 189.189L412.219 188.29C414.671 187.008 416.881 184.565 418.984 182.673C422.337 179.658 425.774 176.745 429.131 173.736C439.068 164.83 451.221 157.413 463.87 153.055C471.651 150.374 479.68 148.749 487.787 147.433C491.356 148.042 495.226 147.623 498.852 147.789L519.195 146.223C520.394 145.922 521.654 145.959 522.844 145.613C525.032 144.979 527.403 144.992 529.676 144.797Z"/>
	<path fill="#FDFDFD" transform="scale(0.666667 0.666667)" d="M489.856 156.792C491.023 156.601 492.037 156.516 493.208 156.767C495.74 157.309 497.962 158.285 499.406 160.5C499.516 162.008 499.509 162.943 498.938 164.355C498.024 164.494 496.799 162.047 496.046 161.343C495.412 160.751 494.621 160.513 493.805 160.27L493.425 160.163C488.646 159.994 488.345 162.147 485.25 164.92L484.688 164.635C484.281 163.486 484.067 162.619 484.522 161.438C485.582 158.683 487.347 157.893 489.856 156.792Z"/>
	<path fill="#774694" transform="scale(0.666667 0.666667)" d="M558.217 172.655C559.033 172.468 560.067 172.605 560.912 172.617C561.498 173.567 561.753 174.661 562.074 175.721L540.766 183.537L538.875 184.229C538.024 184.489 537.744 184.614 536.912 184.178L536.66 183.188C536.891 181.818 537.513 180.974 538.401 179.922C543.74 173.601 550.563 173.328 558.217 172.655Z"/>
	<path fill="#9F69BD" transform="scale(0.666667 0.666667)" d="M570.081 155.601C574.611 155.601 578.858 156.108 583.119 157.721C584.77 158.116 585.714 158.764 587.006 159.837C582.797 159.412 579.676 158.858 575.519 159.995C571.636 161.49 567.79 162.9 564.371 165.324C562.689 166.517 560.996 168.538 559.179 169.374C557.758 170.028 555.574 170.089 554.021 170.287C550.47 170.741 546.902 171.174 543.375 171.779L543.064 171.375L544.397 169.056L544.773 168.428C549.144 161.344 554.826 158.563 562.688 156.764C565.257 156.177 568.047 156.248 570.679 156.155L570.081 155.601Z"/>
	<path fill="#E6B3EB" transform="scale(0.666667 0.666667)" d="M575.519 159.995C574.808 159.523 574.997 159.76 574.576 159.086L574.312 158.627L568.688 158.174L568.688 157.875L572.438 157.875L572.438 157.125C570.935 157.139 569.202 157.327 567.749 156.938C573.185 156.414 577.444 156.88 582.703 158.174L583.119 157.721C584.77 158.116 585.714 158.764 587.006 159.837C582.797 159.412 579.676 158.858 575.519 159.995Z"/>
	<path fill="#2B1F31" transform="scale(0.666667 0.666667)" d="M529.676 144.797C532.075 144.8 535.245 145.17 537.509 144.455L537.924 144.727C542.976 148.13 545.544 156.218 551.625 157.148L552.184 157.241C554.403 157.578 557.349 156.516 559.676 156.263C563.133 155.888 566.609 155.751 570.081 155.601L570.679 156.155C568.047 156.248 565.257 156.177 562.688 156.764C554.826 158.563 549.144 161.344 544.773 168.428L544.397 169.056L544.151 168.188C538.842 164.345 535.406 157.182 530.86 152.354C529.028 150.408 525.263 147.151 522.75 146.321C521.919 146.046 520.133 146.249 519.195 146.223C520.394 145.922 521.654 145.959 522.844 145.613C525.032 144.979 527.403 144.992 529.676 144.797Z"/>
	<path fill="#4F4C51" transform="scale(0.666667 0.666667)" d="M441.852 175.166C449.687 171.821 458.658 168.484 467.222 171.011L467.922 171.207L468.339 171.337C463.218 176.445 457.289 182.066 455.17 189.192C453.795 193.815 453.303 198.717 452.231 203.418C451.755 205.502 451.248 207.713 450.491 209.706C450.02 210.948 449.386 212.038 449.221 213.375L450.215 214.852L425.528 224.47L412.952 228.577C413.762 225.946 414.842 223.372 415.657 220.718C417.889 213.447 419.772 206.454 423.748 199.875C427.396 193.84 432.034 188.091 436.312 182.473C437.715 180.632 441.434 177.253 441.852 175.166Z"/>
	<path fill="#6A676B" transform="scale(0.666667 0.666667)" d="M487.787 147.433C491.356 148.042 495.226 147.623 498.852 147.789C497.232 148.041 495.929 148.026 494.625 149.097C490.744 149.652 486.025 149.801 482.438 151.391L481.87 151.217C480.622 150.905 478.898 151.736 477.686 152.117C469.817 154.593 461.144 158.495 454.391 163.27C450.248 166.2 443.941 170.42 441.852 175.166C441.434 177.253 437.715 180.632 436.312 182.473C432.034 188.091 427.396 193.84 423.748 199.875C419.772 206.454 417.889 213.447 415.657 220.718C414.842 223.372 413.762 225.946 412.952 228.577C406.316 231.44 399.585 234.231 393.065 237.342C390.439 238.595 387.56 239.759 385.114 241.321L378.736 239.577L410.96 187.135C411.355 187.747 411.537 187.74 411.373 188.531L411.186 189.189L412.219 188.29C414.671 187.008 416.881 184.565 418.984 182.673C422.337 179.658 425.774 176.745 429.131 173.736C439.068 164.83 451.221 157.413 463.87 153.055C471.651 150.374 479.68 148.749 487.787 147.433Z"/>
	<path fill="#687D8B" transform="scale(0.666667 0.666667)" d="M450.215 214.852C458.038 215.73 464.173 222.433 468.831 228.292C475.827 237.094 479.033 246.498 482.134 257.179C484.213 264.34 486.096 271.676 487.766 278.944L460.995 268.141L460.93 267.278C460.599 265.798 459.329 264.039 458.573 262.717C455.406 257.177 451.58 252.17 447.697 247.125C443.48 241.648 439.124 236.186 434.198 231.325C431.506 228.668 428.498 226.757 425.528 224.47L450.215 214.852Z"/>
	<defs>
		<linearGradient id="gradient_5" gradientUnits="userSpaceOnUse" x1="425.43799" y1="356.81201" x2="316.33499" y2="285.47198">
			<stop offset="0" stop-color="#61347A"/>
			<stop offset="1" stop-color="#864FA6"/>
		</linearGradient>
	</defs>
	<path fill="url(#gradient_5)" transform="scale(0.666667 0.666667)" d="M305.703 305.109C310.535 300.877 316.051 297.24 321.286 293.509C324.919 290.92 328.561 288.321 332.355 285.972C334.526 284.629 336.948 283.117 339.467 282.595C341.482 282.177 343.826 282.341 345.884 282.333C350.604 282.313 355.29 282.483 359.999 282.801C378.304 284.036 396.414 288.253 412.041 298.226C416.706 301.203 421.085 304.432 424.705 308.665C430.996 316.023 434.332 326.95 433.398 336.55C431.457 356.513 415.158 373.09 400.294 385.008C377.522 403.266 352.225 417.158 326.287 430.283C307.011 440.037 287.229 449.489 266.661 456.224C252.941 460.716 238.944 463.921 224.625 465.762C218.099 466.601 210.665 467.787 204.141 467.062L201.44 466.653C203.97 458.704 209.258 450.849 213.205 443.474C215.108 439.919 217.007 435.071 219.609 432.063C227.273 431.339 234.831 430.835 242.428 429.488C261.307 426.14 280.172 417.635 294.346 404.687C298.777 400.639 302.662 396.055 306.618 391.557C306.981 391.051 307.252 390.606 307.54 390.061L342.612 343.476L326.665 344.677C322.393 345.064 318.117 344.873 313.836 344.773C304.006 344.545 295.017 343.699 285.371 341.716C280.533 340.722 275.14 339.668 270.834 337.186L270.429 337.753C270.215 336.793 270.103 336.059 270.151 335.062C273.681 330.171 279.414 326.327 283.992 322.463C290.889 316.643 298.046 309.869 305.703 305.109Z"/>
	<path fill="#774694" transform="scale(0.666667 0.666667)" d="M330.905 342.101C332.717 341.753 334.669 342.176 336.439 341.689L350.25 338.891L416.998 316.597C417.15 317.576 417.291 317.502 416.816 318.375L416.491 319.285C415.22 322.863 413.357 326.378 411.73 329.817C407.217 339.354 400.839 349.406 392.934 356.482C388.465 360.483 383.34 363.319 378.162 366.281C372.385 369.586 366.75 372.734 360.696 375.535C348.47 381.193 335.348 385.791 322.236 388.87C319.426 389.53 316.506 390.462 313.653 390.863C313.068 390.946 312.731 391.149 312.188 391.316C311.161 391.632 310.203 391.831 309.188 392.25C308.486 391.897 308.793 392.092 308.25 391.688L308.086 391.133C307.845 390.377 307.983 390.661 307.54 390.061L342.612 343.476L326.665 344.677L326.833 344.105C328.556 342.86 329.83 343.048 331.865 343.265L332.25 343.309C333.092 342.764 333.719 342.774 334.685 342.754L335.062 342.75L335.062 342.258C333.895 342.458 332.772 342.714 331.612 342.346L330.905 342.101Z"/>
	<path fill="#9F69BD" transform="scale(0.666667 0.666667)" d="M305.703 305.109L305.79 305.996L304.125 307.309C303.506 307.787 302.739 308.458 302.062 308.816L302.625 309.191L303.184 309.75L303.748 310.219C304.363 309.914 304.72 309.618 305.25 309.191L305.715 308.826L306.699 307.948C307.296 307.405 307.042 307.576 307.686 307.319C308.995 306.797 310.158 305.71 311.287 304.863C315.696 301.556 320.351 296.203 325.741 294.616C329.349 293.553 334.037 293.997 337.813 294.043C354.723 294.252 371.584 296.106 388.147 299.432C395.599 300.929 403.255 302.486 410.25 305.539C415.03 307.626 419.242 310.358 423.235 313.702C421.401 314.705 419.039 316.133 416.998 316.597L350.25 338.891L336.439 341.689C334.669 342.176 332.717 341.753 330.905 342.101L331.612 342.346C332.772 342.714 333.895 342.458 335.062 342.258L335.062 342.75L334.685 342.754C333.719 342.774 333.092 342.764 332.25 343.309L331.865 343.265C329.83 343.048 328.556 342.86 326.833 344.105L326.665 344.677C322.393 345.064 318.117 344.873 313.836 344.773C304.006 344.545 295.017 343.699 285.371 341.716C280.533 340.722 275.14 339.668 270.834 337.186L270.429 337.753C270.215 336.793 270.103 336.059 270.151 335.062C273.681 330.171 279.414 326.327 283.992 322.463C290.889 316.643 298.046 309.869 305.703 305.109Z"/>
	<path fill="#723B94" transform="scale(0.666667 0.666667)" d="M270.834 337.186L271.694 336.691L272.312 336.982C274.526 337.973 277.526 338 279.916 338.532C293.895 341.643 309.059 345.553 323.372 342.64C324.565 342.398 326.517 342.294 327.562 341.809L328.125 341.434L328.781 341.531L327.938 342C328.852 342.552 329.859 342.205 330.905 342.101L331.612 342.346C332.772 342.714 333.895 342.458 335.062 342.258L335.062 342.75L334.685 342.754C333.719 342.774 333.092 342.764 332.25 343.309L331.865 343.265C329.83 343.048 328.556 342.86 326.833 344.105L326.665 344.677C322.393 345.064 318.117 344.873 313.836 344.773C304.006 344.545 295.017 343.699 285.371 341.716C280.533 340.722 275.14 339.668 270.834 337.186Z"/>
	<path fill="#683957" transform="scale(0.666667 0.666667)" d="M251.552 561.817C264.641 552.713 278.504 544.48 291.956 535.909C312.19 523.018 332.11 509.689 352.125 496.47C374.591 481.632 397.09 467.17 418.095 450.261C447.573 426.531 476.124 401.937 503.812 376.127C514.949 365.747 526.013 355.267 537.043 344.774C539.83 342.122 542.614 339.464 545.359 336.768C546.774 335.378 548.272 333.535 549.906 332.46C554.41 338.64 558.439 345.087 562.683 351.44C564.659 354.398 566.668 357.346 568.534 360.375C569.193 361.446 570.274 363.005 570.434 364.249C570.803 367.113 570.098 370.576 569.778 373.448C569.153 379.049 568.585 384.654 567.709 390.223C564.617 409.872 559.074 429.456 550.756 447.562C535.731 480.266 511.358 509.3 482.28 530.467C470.041 539.376 456.462 546.546 442.554 552.481C437.703 554.551 432.697 556.229 427.858 558.321C425.688 559.259 423.575 560.296 421.468 561.365C420.643 561.784 419.466 562.598 418.606 562.766C418.057 562.225 417.261 561.391 416.438 561.335C415.685 561.284 414.351 561.709 413.574 561.847C411.511 562.214 409.451 562.588 407.375 562.878C401.336 563.721 395.195 564.336 389.107 564.705C373.435 565.654 357.942 566.141 342.239 565.591C321.671 564.871 301.181 562.763 280.605 562.112C274.949 561.933 269.262 561.885 263.602 561.963C259.881 562.015 255.112 562.784 251.552 561.817Z"/>
</svg>
